<svg width="556" height="336" viewBox="0 0 556 336" fill="none" xmlns="http://www.w3.org/2000/svg">
<path d="M455.54 317.08L90.1513 317.848C64.9011 317.901 52.2761 317.928 42.6294 313.031C34.1443 308.723 27.2431 301.836 22.9176 293.36C18 283.724 18 271.099 18 245.849V90C18 64.7976 18 52.1965 22.9047 42.5704C27.219 34.1031 34.1031 27.219 42.5704 22.9047C52.1965 18 64.7976 18 89.9999 18H455.85C474.618 18 489.832 33.2139 489.832 51.9811V61.8781C489.832 75.1794 500.614 85.9623 513.916 85.9623C527.217 85.9623 538 96.7452 538 110.047V224.269C538 237.571 527.217 248.354 513.916 248.354C500.614 248.354 489.832 259.136 489.832 272.438V282.717C489.832 301.667 474.491 317.041 455.54 317.08Z" fill="black" fill-opacity="0.15" stroke="white" stroke-width="35"/>
<path d="M285 69L215.48 159.28C214.467 160.595 215.405 162.5 217.064 162.5H304.692C306.304 162.5 307.254 164.308 306.339 165.635L237.5 265.5" stroke="white" stroke-width="29" stroke-linecap="round"/>
</svg>
